<?xml version="1.0" encoding="UTF-8"?>
<svg id="Layer_1" data-name="Layer 1" xmlns="http://www.w3.org/2000/svg" viewBox="0 0 200 200">
  <defs>
    <style>
      .cls-1 {
        fill: #fff;
      }
    </style>
  </defs>
  <path class="cls-1" d="M106.71,143.68c-2.54,10.64.32,22.27-1.13,32.92l-10.49,12.91c-1.59,1.95-5.85,2.48-7.91.36L12.46,113.01c-2.97-3.06-3.34-6.25-.61-9.49l39.07-46.53c1.85-17.03,7.12-32.85,17.02-46.95,2.09-2.97,8.06-.08,10.3,2.08,8.55,8.23,14.13,17.94,19.75,28.33l18.53.24,16.1,12.8,46.76,4.6c4.78.47,9,4.82,10.08,8.53,1.47,5.01-.11,9.73-3.42,13.53l-23.66,27.18c-5.15,2.43-12.71,6.57-18.13,7.44-7.88,1.27-14.56.34-23.22.8-3.9,10.35-11.98,18.31-14.31,28.12ZM141.71,104.3c16.54-4.4,20.48-14.3,31.9-26.56l-6.91-9.79-37.97-3.83-15.81-12.01c-1.87-1.42-8.38-.95-9.94.11-1.56,2.02-3.52,4.55-5.33,5.21s-5.34-2.13-6.22-4.17c-4.88-11.24-10.04-20.97-18.24-31.01-7.23,13.46-11.9,27.11-11.16,42.21.09,1.85-.66,5.17-1.7,6.35-1.04,1.18-4.41,1.18-6.98.46l-30.69,36.4,67.64,69.68c8.68-4.76,1.98-21.36,5.27-36.25,2-9.07,9.61-16.37,12.77-25.48l-11.97-.42c-1.9-.07-4.77-3.21-4.83-5.07-.08-2.75,2.66-5.71,5.82-5.72l44.33-.11Z"/>
  <path class="cls-1" d="M112.7,60.71c-2.83-1.1-6.16.69-7.23,3.47-.77,1.99.62,5.67,2.75,6.58,2.42,1.03,6.08-.03,7.52-2.29,1.46-2.29.18-6.5-3.03-7.76Z"/>
</svg>